<mxfile host="Electron" modified="2023-08-10T17:59:20.140Z" agent="Mozilla/5.0 (X11; Linux x86_64) AppleWebKit/537.36 (KHTML, like Gecko) draw.io/21.6.5 Chrome/114.0.5735.243 Electron/25.3.1 Safari/537.36" etag="kJrfi0oh28oQa6fF2QBk" version="21.6.5" type="device">
  <diagram name="Page-1" id="9qY0LTzlGYT2n_0XLejq">
    <mxGraphModel dx="954" dy="588" grid="1" gridSize="10" guides="1" tooltips="1" connect="1" arrows="1" fold="1" page="1" pageScale="1" pageWidth="827" pageHeight="1169" math="0" shadow="0">
      <root>
        <mxCell id="0" />
        <mxCell id="1" parent="0" />
        <mxCell id="SG-T7PeUlUWp-LbqUtAz-1" value="" style="rounded=0;whiteSpace=wrap;html=1;" vertex="1" parent="1">
          <mxGeometry x="110" y="120" width="660" height="1040" as="geometry" />
        </mxCell>
        <mxCell id="SG-T7PeUlUWp-LbqUtAz-2" value="img" style="whiteSpace=wrap;html=1;aspect=fixed;" vertex="1" parent="1">
          <mxGeometry x="180" y="250" width="210" height="210" as="geometry" />
        </mxCell>
        <mxCell id="SG-T7PeUlUWp-LbqUtAz-3" value="title" style="rounded=0;whiteSpace=wrap;html=1;" vertex="1" parent="1">
          <mxGeometry x="140" y="150" width="600" height="60" as="geometry" />
        </mxCell>
        <mxCell id="SG-T7PeUlUWp-LbqUtAz-4" value="Description" style="rounded=0;whiteSpace=wrap;html=1;" vertex="1" parent="1">
          <mxGeometry x="180" y="620" width="520" height="140" as="geometry" />
        </mxCell>
        <mxCell id="SG-T7PeUlUWp-LbqUtAz-6" value="Recipe List" style="whiteSpace=wrap;html=1;aspect=fixed;" vertex="1" parent="1">
          <mxGeometry x="267.5" y="790" width="345" height="345" as="geometry" />
        </mxCell>
        <mxCell id="SG-T7PeUlUWp-LbqUtAz-8" value="Homepage Layout" style="text;html=1;align=center;verticalAlign=middle;resizable=0;points=[];autosize=1;strokeColor=none;fillColor=none;" vertex="1" parent="1">
          <mxGeometry x="380" y="70" width="120" height="30" as="geometry" />
        </mxCell>
        <mxCell id="SG-T7PeUlUWp-LbqUtAz-9" value="img" style="whiteSpace=wrap;html=1;aspect=fixed;" vertex="1" parent="1">
          <mxGeometry x="320" y="300" width="210" height="210" as="geometry" />
        </mxCell>
        <mxCell id="SG-T7PeUlUWp-LbqUtAz-10" value="img" style="whiteSpace=wrap;html=1;aspect=fixed;" vertex="1" parent="1">
          <mxGeometry x="480" y="370" width="210" height="210" as="geometry" />
        </mxCell>
      </root>
    </mxGraphModel>
  </diagram>
</mxfile>
